<svg xmlns="http://www.w3.org/2000/svg" width="512" height="512" viewBox="0 0 512 512"><path d="M256 50C142.23 50 50 142.23 50 256s92.23 206 206 206 206-92.23 206-206S369.77 50 256 50zm103.6 170.506c3.02 67.2-47.097 142.124-135.803 142.124-26.98 0-52.096-7.91-73.238-21.466 25.346 2.987 50.645-4.044 70.733-19.786-20.907-.386-38.554-14.198-44.632-33.18a47.86 47.86 0 0 0 21.576-.817c-22.976-4.616-38.84-25.316-38.32-47.452a47.567 47.567 0 0 0 21.64 5.977c-21.277-14.22-27.302-42.318-14.784-63.79 23.563 28.907 58.77 47.93 98.478 49.92-6.97-29.885 15.702-58.666 46.542-58.666 13.742 0 26.16 5.8 34.874 15.087a95.686 95.686 0 0 0 30.34-11.594c-3.566 11.157-11.143 20.52-21.007 26.433a95.413 95.413 0 0 0 27.44-7.523 97.038 97.038 0 0 1-23.84 24.733z"/></svg>