<svg xmlns="http://www.w3.org/2000/svg" width="512" height="512" viewBox="0 0 512 512"><path d="M273.96 276.658a453.57 453.57 0 0 1 23.667 86.44c-12.814 4.946-26.675 7.77-41.21 7.77-26.58 0-51.013-9.157-70.496-24.372 22.817-35.783 51.943-59.072 88.04-69.838zm-69.37-123.03c-29.497 14.993-51.626 42.312-59.648 75.167 38.856-.266 72.475-4.526 100.63-12.814-11.885-21.36-25.553-42.163-40.982-62.352zm121.845 11.518c-19.407-14.993-43.653-24.014-70.018-24.014-9.736 0-19.145 1.35-28.177 3.644 15.19 20.415 28.65 41.442 40.425 63.007 24.546-10.395 43.815-24.637 57.77-42.637zm-61.683 89.16a468.727 468.727 0 0 0-7.757-16.59c-32.233 10.124-70.703 15.257-115.295 15.32-.026.992-.15 1.963-.15 2.963 0 27.888 10.01 53.478 26.603 73.396 25.17-37.76 57.443-62.85 96.6-75.09zm33.176 17.253c9.73 26.002 17.168 52.66 22.246 79.92 26.08-17.477 44.516-45.362 49.58-77.644-26.17-4.546-50.097-5.344-71.826-2.277zM462.418 256c0 113.77-92.23 206-206 206s-206-92.23-206-206 92.228-206 206-206 206 92.23 206 206zm-66.95 0c0-76.796-62.256-139.05-139.05-139.05-76.797 0-139.05 62.254-139.05 139.05 0 76.793 62.253 139.05 139.05 139.05 76.794 0 139.05-62.257 139.05-139.05zM279.77 229.208c3.126 6.438 6.058 12.94 8.886 19.468 25.02-4.31 52.463-4.048 82.3.847-1.445-25.685-11.263-49.14-26.9-67.61-16.02 19.968-37.53 35.71-64.286 47.295z"/></svg>