<svg xmlns="http://www.w3.org/2000/svg" width="512" height="512" viewBox="0 0 512 512"><path d="M235.59 281.92c0 9.366-3.333 15.7-10.004 19.006-3.677 1.792-8.817 2.686-15.418 2.686h-36.964V263.02h37.474c6.536.07 11.604.93 15.216 2.582 6.463 2.96 9.697 8.4 9.697 16.32zm-9.282-47.874c4.123-2.513 6.186-6.972 6.186-13.375 0-7.093-2.726-11.775-8.178-14.047-4.703-1.584-10.7-2.376-17.992-2.376h-33.12v33.57h37.005c6.608 0 11.976-1.257 16.098-3.77zM462.418 256c0 113.77-92.23 206-206 206s-206-92.23-206-206 92.228-206 206-206 206 92.23 206 206zm-165.323-54.07h66.154v-15.377h-66.155v15.376zm-29.38 82.16c0-8.744-1.976-16.182-5.93-22.31-3.955-6.128-9.82-10.605-17.59-13.428 5.117-2.617 8.985-5.508 11.615-8.676 4.7-5.646 7.05-13.118 7.05-22.414 0-9.02-2.33-16.767-6.988-23.24-7.74-10.536-20.893-15.94-39.457-16.217h-73.578v152.25h68.602c7.733 0 14.905-.688 21.513-2.066 6.606-1.377 12.34-3.925 17.202-7.644 4.313-3.236 7.907-7.23 10.782-11.98 4.518-7.164 6.78-15.256 6.78-24.276zm119.276-24.41c-1.366-8.83-4.356-16.586-8.966-23.274-5.116-7.587-11.604-13.138-19.457-16.656-7.852-3.518-16.682-5.277-26.477-5.277-16.5 0-29.923 5.206-40.26 15.61-10.343 10.408-15.512 25.364-15.512 44.865 0 20.817 5.727 35.84 17.182 45.076 11.453 9.234 24.672 13.853 39.655 13.853 18.152 0 32.272-5.475 42.358-16.424 6.482-6.888 10.12-13.67 10.912-20.345H356.37c-1.754 3.302-3.773 5.886-6.06 7.743-4.19 3.445-9.64 5.165-16.345 5.165-6.326 0-11.733-1.41-16.23-4.236-7.392-4.545-11.316-12.462-11.772-23.757h81.998c.147-9.722-.174-17.17-.97-22.343zm-37.428-14.863c-4.694-4.047-10.514-6.07-17.463-6.07-7.556 0-13.41 2.146-17.57 6.433-4.162 4.29-6.773 10.096-7.842 17.428h50.716c-.538-7.817-3.15-13.745-7.842-17.79z"/></svg>