<svg xmlns="http://www.w3.org/2000/svg" viewBox="0 0 159.6 159.6"><path fill="#383433" d="M79.8 159.6c-44 0-79.8-35.8-79.8-79.8S35.8 0 79.8 0s79.8 35.8 79.8 79.8-35.8 79.8-79.8 79.8zm0-157.5C37 2.1 2.1 37 2.1 79.8c0 42.8 34.9 77.7 77.7 77.7 42.8 0 77.7-34.9 77.7-77.7 0-42.8-34.9-77.7-77.7-77.7z"/><g fill="#383433"><path d="M108.2 48.7l-.4 2.1 7.3 1.4L47 97.5l-6.3-1.9-.6 2 4.6 1.4-1.5 1v-.1l-6.5-2.1-.6 2.1 5 1.5-1.5 1-6-1.9-.7 2.1 5.7 1.7-.7 5.8 2.2.2.6-6.1 1.4-.9-.4 4.8 2.2.2.5-6.3-.2-.1 1.7-1.1-.5 4.8 2.2.2.6-6.5 68.3-45.4-1.6 7.9 2.1.4 2.3-11.3"/><path d="M50.9 48.7l.4 2.1-7.3 1.4 68.1 45.3 6.3-1.9.6 2-4.6 1.4 1.5 1-.1-.1 6.5-2.1.7 2.1-5 1.5 1.4 1 6.1-1.9.6 2.1-5.6 1.7.7 5.8-2.2.2-.7-6.1-1.4-.9.5 4.8-2.2.2-.5-6.3.2-.1-1.7-1.1.5 4.8-2.2.2-.6-6.5-68.3-45.4 1.6 7.9-2.1.4-2.3-11.3"/></g><g fill="#383433"><path d="M14.8 78.3l-1.4-2.5-1.3 2.6-2.8.5 2 2-.4 2.9 2.6-1.3 2.6 1.3-.4-2.9 2-2.1M149 78.8l-2.9-.5-1.4-2.5-1.3 2.6-2.8.5 2 2-.4 2.9 2.6-1.3 2.6 1.3-.4-2.9"/></g><g fill="#383433"><path d="M99.4 82.3l.6-1c.1-.2.3-.1.4-.1.1 0 1 .7 1.8.7.5 0 .9-.3.9-.8s-.4-.9-1.3-1.3c-1.1-.4-2.4-1.3-2.4-2.8 0-1.2 1-2.5 2.9-2.5 1.3 0 2.3.7 2.7.9.2.1.1.3.1.4l-.6 1c-.1.1-.3.3-.4.2-.1-.1-1-.8-1.8-.8-.5 0-.8.3-.8.6 0 .5.4.8 1.4 1.2 1 .4 2.5 1.2 2.5 2.9 0 1.3-1.1 2.6-3 2.6-1.6 0-2.5-.7-2.8-1-.3.1-.3 0-.2-.2zM108.7 75c0-.2.1-.3.3-.3h1.5c.2 0 .3.1.3.3v3.3l2.8-3.5c0-.1.2-.1.2-.1h1.6c.2 0 .4.3.2.5l-2.9 3.7 3.2 4.2c.1.2 0 .5-.2.5H114c-.1 0-.2-.1-.2-.1l-2.9-4v3.8c0 .2-.1.3-.3.3H109c-.2 0-.3-.1-.3-.3V75z"/></g><g fill="#383433"><path d="M42.2 74.9c0-.1.1-.2.2-.2h3.1c2.4 0 4.4 2 4.4 4.4 0 2.4-2 4.4-4.4 4.4h-3.1c-.1 0-.2-.1-.2-.2v-8.4zm3.2 6.8c1.4 0 2.5-1.1 2.5-2.6 0-1.4-1-2.5-2.5-2.5h-1.2v5.1h1.2zM53.2 74.9c0-.1.1-.2.2-.2H55c.1 0 .2.1.2.2V80c0 .9.7 1.6 1.5 1.6.9 0 1.6-.7 1.6-1.6v-5.1c0-.1.1-.2.2-.2H60c.1 0 .2.1.2.2v5.2c0 1.9-1.6 3.5-3.6 3.5S53 82 53 80.1v-5.2z"/></g><g fill="#383433"><path d="M60.8 135.1l-.2.5c-.1.2-.2.3-.3.4-.1.1-.3.1-.4.2-.1 0-.1.1-.2.1 0 0-.1.1-.1.2l-4 9.9c0 .1-.1.2-.2.2s-.2.1-.3 0l-.9-.4c-.1-.1-.2-.2-.2-.3v-.5-.7s.1-.9.1-1.5.1-1.2.1-1.8c0-.7.1-1.3.1-1.8 0-.6.1-1 .1-1.4 0-.4 0-.6.1-.6v-.1.1l-2.4 6c0 .1-.1.2 0 .3 0 .1 0 .1.1.2s.1.2.1.4c0 .1 0 .3-.1.5l-.2.5-2.5-1 .2-.5c.1-.2.2-.3.3-.4.1-.1.3-.1.4-.2.1 0 .1 0 .2-.1 0 0 .1-.1.1-.2l3.6-8.9c-.1-.1-.2-.2-.2-.3 0-.1-.1-.2-.1-.3 0-.1 0-.3.1-.5l.2-.5 1.8.7c.1.1.2.1.2.2s.1.2 0 .3c0 0 0 .2-.1.6 0 .4-.1.8-.1 1.4 0 .6-.1 1.2-.2 1.8-.1.7-.1 1.3-.2 1.9s-.1 1.1-.1 1.6-.1.8-.1.9v.1l2.5-6.2c0-.1.1-.2 0-.2s0-.1-.1-.2-.1-.2-.1-.4 0-.3.1-.5l.2-.5 2.7 1zM63.7 137.4c-.1 0-.1.1-.1.2l-.9 3.4c0 .2 0 .3.2.3l2 .5c.1 0 .1 0 .2.1s.1.1 0 .2l-.2.9c0 .2-.1.2-.3.2l-2-.5c-.2 0-.3 0-.3.2l-1 3.8c0 .2 0 .2.1.3l1.6.4c.1 0 .2 0 .2-.2s.2-.3.3-.4c.2-.1.4-.1.6 0l.6.2-.4 1.7c0 .1-.1.2-.2.3-.1.1-.2.1-.3 0l-1-.3-3.2-.8-1-.3.1-.4c.1-.2.1-.4.2-.5.1-.1.2-.2.3-.2.2 0 .3-.1.3-.3l2.4-9.1v-.2c0-.1-.1-.1-.1-.2-.1-.1-.2-.2-.2-.3v-.5l.1-.5 5.2 1.4c.1 0 .2.1.3.2.1.1.1.2.1.3L67 139l-.6-.2c-.2-.1-.4-.1-.6-.2-.1-.1-.2-.2-.1-.4v-.2c0-.1-.1-.1-.2-.1l-1.6-.4c0-.1-.1-.1-.2-.1zM75.8 138.2c.1.1.1.3.1.6l-.1.5-.1.9-.9-.1c-.2 0-.3-.1-.4-.2-.1-.1-.1-.3-.1-.4 0-.1 0-.2-.2-.2l-.8-.1h-.2c-.1 0-.1.1-.1.2l-1.2 9.3v.2s.1.1.1.2c.1.1.2.2.2.3.1.1.1.3.1.5l-.1.5-2.8-.3.1-.5c0-.2.1-.3.2-.5l.3-.3c.1 0 .1-.1.1-.1s.1-.1.1-.2l1.2-9.4c0-.1 0-.1-.1-.2-.1 0-.1-.1-.2-.1l-.7-.1h-.2c-.1 0-.1.1-.1.2 0 .2-.1.3-.2.4-.1.1-.3.1-.6.1l-.8-.1.1-1 .1-.5c0-.3.1-.4.3-.5.2-.1.4-.1.7-.1l5.5.7c.4.1.6.2.7.3zM88.9 137.7v.5c0 .2 0 .4-.1.5-.1.1-.2.2-.2.3-.1 0-.1.1-.1.2s-.1.1-.1.2c-.1 2-.2 3.7-.3 5.3 0 .7-.1 1.3-.1 2 0 .6-.1 1.2-.1 1.7s-.1.9-.1 1.2v.5c0 .1 0 .2-.1.3-.1.1-.1.1-.3.1l-1.9.1c-.1 0-.2 0-.3-.1-.1-.1-.1-.2-.2-.3l-1.8-8.2-1 8.3c0 .2-.1.3-.2.3-.1.1-.2.1-.3.1l-1.9.1c-.1 0-.2 0-.3-.1s-.1-.2-.1-.3c0 0 0-.2-.1-.5s-.1-.7-.2-1.2-.2-1.1-.3-1.7c-.1-.6-.2-1.3-.3-1.9-.3-1.5-.6-3.3-.9-5.2 0-.1-.1-.2-.1-.2 0-.1-.1-.1-.2-.1-.1-.1-.2-.1-.3-.3-.1-.1-.1-.3-.1-.5v-.5l2.8-.1v.5c0 .2 0 .4-.1.5-.1.1-.1.2-.2.3-.1 0-.1.1-.1.1v.2c.3 1.8.5 3.3.8 4.7.1.6.2 1.2.3 1.7s.2 1.1.3 1.5c.1.4.1.8.2 1.1s.1.4.1.4c.1-.8.2-1.6.2-2.3.1-.7.2-1.4.2-2.2s.2-1.6.3-2.4c.1-.8.2-1.5.3-2.2.1-.7.2-1.2.2-1.6 0-.1.1-.3.3-.3s.4-.1.5-.1c.2 0 .4 0 .6.1.2.1.3.2.3.3.1.4.2.9.4 1.6.2.7.3 1.4.5 2.2.2.8.4 1.6.5 2.4.2.8.3 1.5.5 2.2.1.7.3 1.4.5 2.2v-.4s0-.6.1-1.1.1-1 .1-1.5c0-.6.1-1.2.1-1.7.1-1.4.2-3 .3-4.7v-.2l-.1-.1c-.1-.1-.2-.1-.3-.3-.1-.1-.1-.3-.1-.5v-.5l2.5-.4zM95.7 149.2c-.4.1-.8.1-1.2.1-.4 0-.7-.1-1-.3-.3-.1-.6-.4-.8-.6-.2-.3-.4-.6-.5-1.1l-1.7-7.7c-.1-.4-.1-.8 0-1.2.1-.3.2-.7.4-.9.2-.3.5-.5.8-.7.3-.2.7-.3 1.1-.4.4-.1.8-.1 1.2-.1.4 0 .7.1 1 .2.3.1.6.4.8.6.2.3.4.6.5 1.1L98 146c.1.4.1.8 0 1.2-.1.3-.2.7-.4.9-.2.3-.5.5-.8.7-.3.1-.7.3-1.1.4zm-1-10.4c0-.2-.1-.4-.2-.5-.1-.1-.2-.2-.4-.3s-.3-.1-.5-.1h-.5c-.2 0-.3.1-.4.2-.1.1-.3.2-.4.3-.1.1-.2.3-.2.4v.6l1.7 7.6c0 .2.1.4.2.5.1.1.2.2.4.3.1.1.3.1.5.1h.5c.2 0 .3-.1.4-.2.1-.1.3-.2.4-.3s.2-.3.2-.4v-.6l-1.7-7.6zM107.2 144c.1 0 .2.1.3.1.1.1.2.2.3.4l.2.6-1.3.5c-.3.1-.5.1-.7 0-.2-.1-.3-.3-.4-.5l-1.2-3.1c-.1-.4-.3-.6-.6-.8-.2-.1-.5-.2-.9 0l-1 .4c-.1.1-.2.2-.1.3l1.2 3.3c0 .1.1.2.1.2s.1.1.2.1.2.1.4.2c.1.1.2.2.3.4l.2.5-2.6 1-.2-.5c-.1-.2-.1-.3 0-.5 0-.1.1-.3.2-.4 0-.1 0-.1.1-.2v-.2l-3.3-8.9c0-.1-.1-.1-.1-.2s-.1-.1-.2-.1-.2-.1-.3-.2c-.1-.1-.2-.2-.3-.5l-.2-.5 3.3-1.2c.5-.2.9-.2 1.2-.2.4 0 .7.1 1 .3.3.2.5.4.8.7.2.3.4.6.5 1l.6 1.6c.1.3.2.7.1 1 0 .3-.1.6-.3.9-.1.1 0 .2.1.3.3.1.6.3.8.5.2.3.4.6.6 1l.9 2.3c0 .1.1.2.1.2 0 .2.1.2.2.2zm-4.8-7.5c-.1-.4-.3-.6-.6-.8-.2-.2-.5-.2-.9-.1l-.9.4c-.2.1-.2.2-.2.3l1.4 3.8c0 .1.1.1.1.1h.1l1-.4c.3-.1.5-.3.6-.6.1-.3 0-.6-.1-1l-.5-1.7zM115.5 139.7c.1 0 .3 0 .4.1l.4.4.3.6-.3.2-.7.4c-.1.1-.2.1-.3.1h-.3c-.1 0-.2 0-.3-.1-.1 0-.2-.1-.4-.2-.1 0-.2-.1-.3-.2-.1-.1-.3-.2-.5-.4s-.4-.3-.6-.5c-.2-.2-.5-.3-.7-.5-.5-.4-1.1-.8-1.8-1.3v.6l1.4 2.6c0 .1.1.1.1.2 0 0 .1 0 .2.1.1 0 .2.1.4.1.1.1.3.2.3.4l.2.4-2.5 1.3-.2-.4c-.1-.2-.1-.3-.1-.5s.1-.3.1-.4v-.2-.2l-4.5-8.4c-.1-.1-.1-.1-.1-.2 0 0-.1 0-.2-.1-.1 0-.2-.1-.4-.1-.1-.1-.3-.2-.3-.4l-.2-.5 2.5-1.3.2.5c.1.2.1.3.1.5s-.1.3-.1.4c0 .1-.1.1-.1.2s0 .1.1.2l1.5 2.8.1-4.7v-.4c0-.1.1-.2.1-.4l.3-.3.9-.5.3.6c.1.2.1.4.1.6-.1.2-.1.3-.2.4-.1.1-.1.2-.1.2v4.8s.1.1.1.2l.2.2c.1.1.3.2.5.4.2.1.4.3.7.5.3.2.5.4.8.6.6.4 1.3.9 2.1 1.5.1.1.2.1.2.1h.6z"/></g><g fill="#383433"><path d="M43.3 19.8l.3.4c.1.2.2.3.1.5 0 .2 0 .3-.1.4v.2c0 .1 0 .1.1.2l5.8 8.9c.1.1.1.2.1.3 0 .1-.1.2-.2.3l-.8.5c-.1.1-.2.1-.4 0-.1-.1-.3-.2-.4-.3 0 0-.2-.2-.6-.4-.3-.3-.7-.6-1.2-.9-.4-.4-.9-.8-1.4-1.2-.5-.4-1-.8-1.4-1.1-.4-.4-.8-.6-1.1-.9-.3-.2-.4-.4-.4-.4h-.1v.1l3.5 5.4c.1.1.1.2.2.2h.2c.1 0 .2 0 .4.1.1.1.3.2.4.3l.3.4-2.2 1.5-.3-.4c-.1-.2-.2-.3-.1-.5 0-.2 0-.3.1-.4v-.2c0-.1 0-.1-.1-.2l-5.3-8h-.3c-.1 0-.2-.1-.3-.1l-.3-.3-.3-.5 1.6-1.1c.1-.1.2-.1.3-.1.1 0 .2.1.3.1 0 0 .2.1.5.4.3.2.7.5 1.1.9s.9.7 1.4 1.2l1.5 1.2s.9.7 1.2 1c.4.3.6.5.7.6h.1l-3.7-5.6c-.1-.1-.1-.2-.2-.2h-.2c-.1 0-.2 0-.4-.1-.1-.1-.3-.2-.4-.3l-.3-.4 2.3-1.5zM52.7 27.4c.1.1.1.2.2.2s.1 0 .2.1c.1 0 .2.1.4.1s.2.2.3.4l.2.5-2.5 1.3-.2-.5c-.1-.2-.1-.3-.1-.5 0-.1.1-.3.1-.4 0-.1.1-.1.1-.2s0-.1-.1-.2L47 19.8c-.1-.1-.1-.2-.1-.2s-.1 0-.2-.1c-.1 0-.2-.1-.4-.1-.1-.1-.2-.2-.3-.4l-.2-.4 2.5-1.3.2.4c.1.2.1.3.1.5s-.1.3-.1.4c0 .1 0 .1-.1.2 0 .1 0 .1.1.2l4.2 8.4zM60.9 25.6c0 .1 0 .2-.1.2l-.1.1h-.1-.1c-.2-.1-.3-.2-.4-.2-.1 0-.2.1-.2.2l-.3.3c-.1.1-.3.2-.4.3-.2.1-.3.2-.5.3-.2.1-.3.2-.5.2-.8.3-1.4.3-2 .1-.6-.2-1.1-.7-1.4-1.5l-2.9-7.3c-.2-.4-.2-.8-.2-1.1 0-.4.1-.7.3-1 .2-.3.4-.5.7-.8.3-.2.6-.4 1-.6.4-.2.8-.2 1.1-.3s.7 0 1.1.1c.3.1.6.3.9.5.3.2.5.6.6 1l.4 1.1-.7.3h-.6c-.1 0-.2-.1-.3-.1-.1-.1-.2-.1-.2-.3l-.1-.3c-.1-.2-.2-.4-.3-.5-.1-.1-.3-.2-.4-.2-.2 0-.3-.1-.5 0-.2 0-.3.1-.5.1-.3.1-.5.3-.7.6-.2.3-.2.6 0 1l2.8 7.2c.2.4.4.7.7.8.3.1.6.1.9-.1.1-.1.3-.1.4-.2.1-.1.2-.2.3-.4.1-.1.1-.3.2-.5 0-.2 0-.4-.1-.6l-.8-2.1c-.1-.2-.2-.3-.4-.3s-.3 0-.4-.1c-.1-.1-.2-.3-.4-.6l-.1-.4 1.9-.7h.3c.1 0 .2.1.3.2l1.8 5.6zM68.2 22.1c0 .1.1.2.1.2s.1.1.2.1.2.1.3.2c.1.1.2.2.2.4l.1.5-2.8.7-.1-.5v-.5s.1-.3.2-.3l.1-.1v-.2l-1-3.9c0-.2-.1-.2-.3-.2l-2 .5c-.2 0-.2.1-.2.3l.9 3.9c0 .1.1.2.1.2l.1.1c.1 0 .2.1.3.2s.2.2.2.4l.1.5-2.7.7-.1-.5v-.5c.1-.1.1-.3.2-.3l.1-.1v-.2L60 14.5c0-.1-.1-.2-.1-.2l.1-.3c-.1 0-.2-.1-.3-.2-.1-.1-.2-.2-.2-.4l-.1-.5 2.7-.7.1.5v.5c-.1.1-.1.3-.2.3 0 .1-.1.1-.1.2v.2l.8 3.4c0 .1.1.1.1.2h.2l2-.5c.1 0 .1-.1.2-.1v-.2l-.8-3.4c0-.1-.1-.2-.1-.2s-.2-.1-.3-.1c-.1 0-.2-.1-.3-.2-.1-.1-.2-.2-.2-.4l-.1-.5 2.8-.7.1.5v.5c-.1.1-.1.3-.2.3 0 .1-.1.1-.1.2v.2l2.2 9.2zM76.2 10.1c.1.1.2.3.2.6l.1.5.1.9-.9.1c-.2 0-.3 0-.4-.1-.1-.1-.2-.2-.2-.4 0-.1-.1-.2-.2-.2l-.8.1c-.1 0-.1 0-.2.1s-.1.1-.1.2l.9 9.4c0 .1 0 .2.1.2l.1.1c.1.1.2.1.3.3.1.1.2.3.2.5v.5l-2.8.3v-.5c0-.2 0-.4.1-.5.1-.1.2-.2.2-.3l.1-.1v-.2l-.8-9.6c0-.1 0-.1-.1-.2h-.2l-.7.1s-.1 0-.2.1-.1.1-.1.2c0 .2 0 .3-.1.4-.1.1-.3.2-.5.2l-.8.1-.1-1v-.5c0-.3 0-.4.2-.6s.3-.2.6-.2l5.5-.5c.2-.1.4-.1.5 0zM86.3 10.3c.1.1.1.3.1.6v1.4h-.9c-.2 0-.3-.1-.4-.2-.1 0-.1-.2-.1-.3 0-.1-.1-.2-.2-.2H84c-.1 0-.1 0-.2.1-.1 0-.1.1-.1.2l-.4 9.4v.2l.1.1c.1.1.2.2.2.3.1.1.1.3.1.5v.5l-2.7-.2v-.5c0-.2.1-.3.2-.5l.3-.3.1-.1s.1-.1.1-.2l.4-9.4c0-.1 0-.1-.1-.2-.1 0-.1-.1-.2-.1h-.7-.2c-.1 0-.1.1-.1.2 0 .2-.1.3-.2.4-.1.1-.3.1-.6.1h-.8v-1.5c0-.3.1-.4.2-.5.1-.1.4-.1.7-.1l5.5.2c.5 0 .7 0 .7.1zM89.7 21.9v.3l.1.1c.1.1.2.2.2.3s.1.3.1.5l-.1.5-2.8-.4.1-.5c0-.2.1-.3.2-.4l.3-.3c.1 0 .1-.1.1-.1s.1-.1.1-.2l1.4-9.3v-.2s-.1-.1-.1-.2c-.1-.1-.2-.2-.2-.3-.1-.3-.1-.4-.1-.6l.1-.5 2.8.4-.1.5c0 .2-.1.3-.2.5-.1.1-.2.2-.3.2-.1 0-.1.1-.1.1s-.1.1-.1.2l-1.4 9.4zM104.4 15.2c-.1.1-.2.2-.3.2-.1.1-.2.1-.3.1l-2.6 9.2v.2s.1.1.1.2c.1.1.1.2.2.4.1.1 0 .3 0 .5l-.2.5-2.7-.8.2-.5c.1-.2.1-.3.3-.4.1-.1.2-.2.3-.2.1 0 .1 0 .2-.1 0 0 .1-.1.1-.2l1.9-6.7v-.1h-.1c-.6.6-1.2 1.2-1.6 1.7l-.6.6-.6.6-.4.4c-.2.1-.3.2-.3.2-.1.1-.1.1-.3.1h-.4c-.1 0-.2-.1-.3-.2l-.2-.2s0-.1-.1-.3c0-.2-.1-.4-.1-.6-.1-.2-.1-.5-.2-.8s-.1-.6-.2-.9c-.1-.7-.3-1.5-.5-2.3v.1l-1.9 6.7v.2c0 .1 0 .1.1.1.1.1.1.2.2.4.1.1.1.3 0 .5l-.1.5-2.7-.8.1-.5c.1-.2.1-.3.3-.4s.2-.2.3-.2c.1 0 .1 0 .2-.1 0 0 .1-.1.1-.2l2.7-9.3c-.1-.1-.2-.1-.2-.2-.1-.1-.1-.2-.1-.3v-.5l.1-.5 1.7.5c.1 0 .1.1.2.1.1.1.1.1.1.2 0 .2.1.5.1.9.1.4.1.8.2 1.3l.3 1.5c.1.5.2.9.3 1.4.1.4.2.8.2 1s.1.4.1.5c0 .1 0 .1.1.1h.1l.2-.2c.1-.1.3-.3.5-.6s.5-.5.7-.8c.3-.3.6-.6.8-.9l2.3-2.4.2-.2h.2l1.6.5-.1.5c0 .2-.1.4-.2.5zM104.9 26.5c-.1.1-.1.2-.1.3 0 .1 0 .1.1.2s.1.2.1.4 0 .3-.1.5l-.2.5-2.6-1.1.2-.5c.1-.2.2-.3.3-.4.1-.1.2-.1.4-.2.1 0 .1 0 .2-.1 0 0 .1-.1.1-.2l3.8-8.6c0-.1.1-.2.1-.2s0-.1-.1-.2-.1-.2-.1-.4 0-.3.1-.5l.2-.5 2.6 1.1-.2.5c-.1.2-.2.3-.3.4s-.3.1-.4.2c-.1 0-.1 0-.2.1s-.1.1-.1.2l-3.8 8.5zM118.4 21.1l-.2.4c-.1.2-.2.3-.4.3s-.3.1-.4.1c-.1 0-.1 0-.2.1l-.2.2-5.3 9.3c-.1.1-.1.2-.2.2h-.3l-.9-.5c-.1-.1-.2-.2-.2-.3 0-.1 0-.3.1-.5 0-.1.1-.3.1-.7.1-.4.2-.9.3-1.4.1-.6.2-1.2.4-1.8.1-.6.3-1.2.4-1.8.1-.5.2-1 .3-1.4.1-.4.1-.6.1-.6v-.1l-.1.1-3.2 5.6c-.1.1-.1.2-.1.2 0 .1 0 .1.1.2 0 .1.1.2.1.4s0 .3-.1.5l-.3.4-2.3-1.3.3-.4c.1-.2.2-.3.4-.3.1-.1.3-.1.4-.1h.2c.1 0 .1-.1.2-.2l4.7-8.3c-.1-.1-.1-.2-.2-.3v-.3c0-.1.1-.3.2-.4l.3-.5 1.7.9c.1.1.2.1.2.2v.3s-.1.2-.1.6-.2.8-.3 1.4c-.1.6-.2 1.2-.4 1.8s-.3 1.3-.4 1.9-.3 1.1-.4 1.6-.2.8-.2.9v.1l3.3-5.9c.1-.1.1-.2.1-.2v-.2c0-.1-.1-.2-.1-.4s0-.3.1-.5l.2-.4 2.3 1.1zM118 36.5c-.1.1-.2.1-.3 0l-.1-.1-.1-.1v-.1c0-.2 0-.4-.1-.4-.1-.1-.2-.1-.3-.1-.1 0-.3-.1-.4-.1s-.3-.1-.5-.2-.3-.2-.5-.3c-.2-.1-.3-.2-.4-.3-.6-.5-1-1-1.2-1.7-.1-.6 0-1.3.6-2l4.8-6.3c.3-.3.5-.6.9-.8.3-.2.6-.3 1-.3s.7 0 1 .2.7.3 1 .6.6.5.8.8.4.6.5.9c.1.3.1.7 0 1-.1.4-.2.7-.5 1l-.7.9-.6-.5c-.1 0-.1-.1-.2-.2s-.1-.2-.2-.3c0-.1-.1-.2-.1-.3 0-.1 0-.2.1-.3l.2-.3c.1-.2.2-.4.2-.5v-.5c0-.2-.1-.3-.2-.4l-.3-.3c-.3-.2-.5-.3-.8-.3-.3 0-.6.2-.9.5l-4.7 6.2c-.3.4-.4.7-.3 1s.3.5.5.7c.1.1.3.2.4.2.2.1.3.1.5.1s.3 0 .5-.1.3-.2.4-.4l1.4-1.8c.1-.2.1-.3 0-.5-.1-.1-.2-.3-.1-.4s.1-.4.3-.6l.2-.3 1.6 1.2c.1 0 .1.1.2.2s0 .2-.1.4l-3.5 4.9z"/></g><path fill="#383433" d="M79.3 47.6c.3 0 .5-.2.5-.5v-4c0-.3-.2-.5-.5-.5s-.5.2-.5.5v4c0 .3.2.5.5.5zM90.1 47.4l-2.8 2.8c-.2.2-.2.5 0 .7.1.1.2.1.4.1.1 0 .3 0 .4-.1l2.8-2.8c.2-.2.2-.5 0-.7-.3-.2-.7-.2-.8 0zM68.8 47.4c-.2.2-.2.5 0 .7l2.8 2.8c.1.1.2.1.4.1s.3 0 .4-.1c.2-.2.2-.5 0-.7l-2.8-2.8c-.3-.2-.6-.2-.8 0zM92.8 58.1h-5c-.1-4.3-3.7-7.8-8-7.8s-7.9 3.5-8 7.8h-5c-.3 0-.5.2-.5.5s.2.5.5.5h26c.3 0 .5-.2.5-.5s-.2-.5-.5-.5zm-13-6.7c3.8 0 6.9 3 7 6.8h-14c.1-3.8 3.2-6.8 7-6.8zM79.5 111.6c-3.8 0-8.3-3.1-8.3-6.8v-3.5c0-.6.5-1 1-1H74v.9h-1.7c-.1 0-.1.1-.1.1v3.5c0 3.2 4.1 5.9 7.4 5.9 3.3 0 7.4-2.7 7.4-5.9v-3.6h-1.6v-.9H87c.5 0 .9.4.9.9v3.6c-.1 3.8-4.6 6.8-8.4 6.8z"/><path fill="#383433" d="M83.1 102.2c-.1-.3-.2-.6-.3-.7h-7.9c-.8 0-1.5-.7-1.5-1.5s.7-1.5 1.5-1.5h9.6c.8 0 1.5.7 1.5 1.5v.5h-.6v-.5h-.3c0-.3-.3-.6-.6-.6h-9.6c-.3 0-.6.3-.6.6s.3.6.6.6H83c.2 0 .6 0 1.1 1.4l-1 .2z"/><path fill="#383433" d="M84.5 103c-.8 0-1.5-.7-1.5-1.5h.9c0 .3.3.6.6.6s.6-.3.6-.6V100c0-.3-.3-.6-.6-.6v-.9c.8 0 1.5.7 1.5 1.5v1.5c0 .8-.7 1.5-1.5 1.5zM76.9 97c-.3 0-.5-.2-.5-.5v-2.4c0-.3.2-.5.5-.5s.5.2.5.5v2.4c0 .3-.2.5-.5.5zM82.1 97c-.3 0-.5-.2-.5-.5v-2.4c0-.3.2-.5.5-.5s.5.2.5.5v2.4c0 .3-.2.5-.5.5zM79.5 97c-.3 0-.5-.2-.5-.5v-4.8c0-.3.2-.5.5-.5s.5.2.5.5v4.8c-.1.3-.3.5-.5.5zM71.4 107.6c-1.7 0-3.1-1.4-3.1-3.1 0-1.7 1.4-3.1 3.1-3.1h.3c.3 0 .4.2.4.5s-.2.4-.5.4h-.2c-1.2 0-2.2 1-2.2 2.2 0 1.2 1 2.2 2.2 2.2.2 0 .5 0 .7-.1.2-.1.5.1.6.3.1.2-.1.5-.3.6-.4.1-.7.1-1 .1z"/></svg>