<svg xmlns="http://www.w3.org/2000/svg" xmlns:xlink="http://www.w3.org/1999/xlink" viewBox="0 0 159.6 159.6"><path fill="#FFF" d="M79.8 159.6c-44 0-79.8-35.8-79.8-79.8S35.8 0 79.8 0s79.8 35.8 79.8 79.8-35.8 79.8-79.8 79.8zm0-157.5C37 2.1 2.1 37 2.1 79.8c0 42.8 34.9 77.7 77.7 77.7 42.8 0 77.7-34.9 77.7-77.7 0-42.8-34.9-77.7-77.7-77.7z"/><g fill="#FFF"><path d="M108.2 48.7l-.4 2.1 7.3 1.4L47 97.5l-6.3-1.9-.6 2 4.6 1.4-1.5 1v-.1l-6.5-2.1-.6 2.1 5 1.5-1.5 1-6-1.9-.7 2.1 5.7 1.7-.7 5.8 2.2.2.6-6.1 1.4-.9-.4 4.8 2.2.2.5-6.3-.2-.1 1.7-1.1-.5 4.8 2.2.2.6-6.5 68.3-45.4-1.6 7.9 2.1.4 2.3-11.3"/><path d="M50.9 48.7l.4 2.1-7.3 1.4 68.1 45.3 6.3-1.9.6 2-4.6 1.4 1.5 1-.1-.1 6.5-2.1.7 2.1-5 1.5 1.4 1 6.1-1.9.6 2.1-5.6 1.7.7 5.8-2.2.2-.7-6.1-1.4-.9.5 4.8-2.2.2-.5-6.3.2-.1-1.7-1.1.5 4.8-2.2.2-.6-6.5-68.3-45.4 1.6 7.9-2.1.4-2.3-11.3"/></g><g fill="#FFF"><path d="M14.8 78.3l-1.4-2.5-1.3 2.6-2.8.5 2 2-.4 2.9 2.6-1.3 2.6 1.3-.4-2.9 2-2.1M149 78.8l-2.9-.5-1.4-2.5-1.3 2.6-2.8.5 2 2-.4 2.9 2.6-1.3 2.6 1.3-.4-2.9"/></g><text transform="translate(98.797 83.53)" fill="#FFF" font-family="'BrandonGrotesque-Black'" font-size="12.6" letter-spacing="1">SK</text><text transform="translate(41.097 83.53)" fill="#FFF" font-family="'BrandonGrotesque-Black'" font-size="12.6" letter-spacing="1">DU</text><path id="a" fill="none" d="M30.2 35.9c23.7-27.4 65.1-30.4 92.5-6.7 27.4 23.7 30.4 65.1 6.7 92.5-23.7 27.4-65.1 30.4-92.5 6.7-27.4-23.6-30.4-65.1-6.7-92.5z"/><text><textPath xlink:href="#a" startOffset="100%"> <tspan fill="#FFF" font-family="'GearedSlab-Regular'" font-size="17" letter-spacing="77"> NETWORK</tspan> </textPath></text><path id="b" fill="none" d="M125.2 34.5c26.2 25.1 27.1 66.6 2 92.8-25.1 26.2-66.6 27.1-92.8 2-26.2-25.1-27.1-66.6-2-92.8 25.1-26.2 66.6-27 92.8-2z"/><text><textPath xlink:href="#b" startOffset="100%"> <tspan fill="#FFF" font-family="'GearedSlab-Regular'" font-size="17" letter-spacing="77"> NIGHTTIMING</tspan><tspan fill="#FFF" font-family="'Futura-Medium'" font-size="15.75" letter-spacing="77"> </tspan><tspan fill="#FFF" font-family="'Haymaker'" font-size="16.8" letter-spacing="77"> </tspan> </textPath></text><path fill="#FFF" d="M79.3 47.6c.3 0 .5-.2.5-.5v-4c0-.3-.2-.5-.5-.5s-.5.2-.5.5v4c0 .3.2.5.5.5zM90.1 47.4l-2.8 2.8c-.2.2-.2.5 0 .7.1.1.2.1.4.1.1 0 .3 0 .4-.1l2.8-2.8c.2-.2.2-.5 0-.7-.3-.2-.7-.2-.8 0zM68.8 47.4c-.2.2-.2.5 0 .7l2.8 2.8c.1.1.2.1.4.1s.3 0 .4-.1c.2-.2.2-.5 0-.7l-2.8-2.8c-.3-.2-.6-.2-.8 0zM92.8 58.1h-5c-.1-4.3-3.7-7.8-8-7.8s-7.9 3.5-8 7.8h-5c-.3 0-.5.2-.5.5s.2.5.5.5h26c.3 0 .5-.2.5-.5s-.2-.5-.5-.5zm-13-6.7c3.8 0 6.9 3 7 6.8h-14c.1-3.8 3.2-6.8 7-6.8zM79.5 111.6c-3.8 0-8.3-3.1-8.3-6.8v-3.5c0-.6.5-1 1-1H74v.9h-1.7c-.1 0-.1.1-.1.1v3.5c0 3.2 4.1 5.9 7.4 5.9 3.3 0 7.4-2.7 7.4-5.9v-3.6h-1.6v-.9H87c.5 0 .9.4.9.9v3.6c-.1 3.8-4.6 6.8-8.4 6.8z"/><path fill="#FFF" d="M83.1 102.2c-.1-.3-.2-.6-.3-.7h-7.9c-.8 0-1.5-.7-1.5-1.5s.7-1.5 1.5-1.5h9.6c.8 0 1.5.7 1.5 1.5v.5h-.6v-.5h-.3c0-.3-.3-.6-.6-.6h-9.6c-.3 0-.6.3-.6.6s.3.6.6.6H83c.2 0 .6 0 1.1 1.4l-1 .2z"/><g><path fill="#FFF" d="M84.5 103c-.8 0-1.5-.7-1.5-1.5h.9c0 .3.3.6.6.6s.6-.3.6-.6V100c0-.3-.3-.6-.6-.6v-.9c.8 0 1.5.7 1.5 1.5v1.5c0 .8-.7 1.5-1.5 1.5z"/></g><g><path fill="#FFF" d="M76.9 97c-.3 0-.5-.2-.5-.5v-2.4c0-.3.2-.5.5-.5s.5.2.5.5v2.4c0 .3-.2.5-.5.5z"/></g><g><path fill="#FFF" d="M82.1 97c-.3 0-.5-.2-.5-.5v-2.4c0-.3.2-.5.5-.5s.5.2.5.5v2.4c0 .3-.2.5-.5.5z"/></g><g><path fill="#FFF" d="M79.5 97c-.3 0-.5-.2-.5-.5v-4.8c0-.3.2-.5.5-.5s.5.2.5.5v4.8c-.1.3-.3.5-.5.5z"/></g><g><path fill="#FFF" d="M71.4 107.6c-1.7 0-3.1-1.4-3.1-3.1 0-1.7 1.4-3.1 3.1-3.1h.3c.3 0 .4.2.4.5s-.2.4-.5.4h-.2c-1.2 0-2.2 1-2.2 2.2 0 1.2 1 2.2 2.2 2.2.2 0 .5 0 .7-.1.2-.1.5.1.6.3.1.2-.1.5-.3.6-.4.1-.7.1-1 .1z"/></g></svg>