<svg xmlns="http://www.w3.org/2000/svg" viewBox="0 0 104.3 71.5"><path d="M33.4 21.7V62c0 5.5-2.9 8.6-8.3 9-4.2.3-5.7.4-10.7.4V14.8c5 0 6.5-.1 10.7-.4 5.3-.4 8.3 1.9 8.3 7.3zm-6 1.6c0-1.3-.2-2.3-.8-2.8-.5-.5-1.4-.8-2.3-.7-1.5.1-1.9.2-3.9.2v45.9c2-.1 2.4-.1 4-.2.9-.1 1.7-.4 2.2-1 .5-.6.8-1.6.8-2.9V23.3zM58.4 9.4v49.9c0 1.9-.9 3.7-2.2 5.3-1.3 1.6-3 2.6-4.9 3.1-1.8.3-2.7.5-4.5.8-1 .2-1.9.1-2.8-.1-.9-.2-1.7-.6-2.3-1.2-.6-.5-1.2-1.2-1.6-2-.4-.8-.6-1.7-.6-2.7V14.2c0-.4.2-.8.6-1.2.4-.4.8-.6 1.3-.6 1.6-.3 2.1-.4 4.1-.7v48.9c0 .8.3 1.5.8 2 .6.5 1.3.7 2.1.5.4-.1.5-.1.9-.2.9-.2 1.6-.6 2.2-1.3.6-.7.9-1.5.9-2.4V10.3c2-.2 3-.5 6-.9zM78.7 18.1c-.3.2-1 .5-1.9 1.1-.9.6-1.5 1.1-2.5 1.5v-6.5c0-.9-.2-1.6-.8-2.1-.6-.5-1.3-.7-2.2-.5-.8.1-1.5.6-2.1 1.3-.6.7-.9 1.5-.9 2.4v5.4c0 .7.2 1.3.4 2.1.2.6.4 1.4.7 2.3.3.9.8 1.8 1.4 2.8 2.7 4.7 4.1 7 6.8 11.7.4 1 .9 1.9 1.2 2.9.3.8.7 1.8.9 2.8.3 1 .4 2 .4 2.9v7.1c0 2-.7 3.8-2.1 5.4-1.4 1.6-3.1 2.6-5.1 3-1.5.3-2.2.4-3.6.6-1.9.2-3.7-.2-5-1.3-1.3-1.1-2.1-2.6-2.1-4.5v-5.8c0-.9.3-1.7.6-2.2.3-.5.7-.9 1.1-1.2.3-.2.9-.5 1.8-1.1.9-.6 1.5-1.1 2.5-1.6v9.9c0 .8.3 1.5.9 2 .6.5 1.3.6 2.2.5.9-.2 1.5-.6 2.1-1.3.6-.7.8-1.5.8-2.3V49c0-.7-.1-1.3-.3-2.1-.2-.6-.4-1.4-.7-2.3-.3-.9-.7-1.8-1.3-2.8-2.8-4.7-4.2-7.1-6.9-11.7-.5-1-.9-1.9-1.2-2.8-.3-.8-.7-1.7-1-2.7-.2-1-.5-2-.5-2.9v-5.8c0-1 .3-2 .7-2.9.4-1 .9-1.8 1.6-2.7.7-1 1.4-1.7 2.3-2.3.9-.6 1.8-1 2.8-1.1 1.5-.3 2.2-.4 3.6-.6.9-.2 1.8-.1 2.7.2.9.3 1.6.7 2.2 1.3.6.6 1.1 1.3 1.5 2.2.4.9.6 1.7.6 2.7v2.2c0 .9-.2 1.7-.5 2.2-.3.3-.7.7-1.1 1zM104.3 60c-2.5 0-3.7 0-6.1.2-3.1-10-4.8-15-7.8-24.8v25.4c-2 .2-3 .4-6 .7V6.9c0-.9.4-1.6.8-1.9.5-.3.9-.5 1.3-.6 1.5-.3 1.9-.4 3.9-.5v20.7c3-8.5 4.3-12.7 7.2-21.1 2.4-.1 3.6-.2 6-.2-3.6 10.3-5.4 15.5-9 26 3.2 10.2 6.5 20.5 9.7 30.7z"/><g fill="#1D1F1D"><path d="M17.7 4.3c-.1-1.7-.6-3-1.6-4.1-.2-.2-.4-.4-.7-.2-.2.1-.3.4-.2.6.8 1.2 1.1 2.7 2.5 3.7zM2.3 14.8c-.4-.3-.7-.3-1 .2-.3.5.1.7.4.8.7.2 1.3.5 2 .7.7.2 1.4.5 2.2.3-1.2-.8-2.4-1.3-3.6-2zM36.2 3.6c-.2-.2-.3-.1-.5 0s-.4.2-.5.4c-.6 1.3-1.3 2.5-1.7 3.8.1 0 .2.1.3.1.8-1.3 1.7-2.6 2.5-3.8 0-.2.1-.4-.1-.5zM10.7 8.7c.1-.1.2-.2.3-.2-.9-.9-1.8-1.8-2.7-2.8-.1-.1-.2-.1-.3-.1-.2-.2-.4-.2-.6.1-.2.2-.3.5 0 .7 1.1.8 2.1 1.7 3.3 2.3zM.4 25.4c-.3 0-.4.3-.4.6s.2.5.5.5c1.1-.1 2.3 0 3.6-.4-1.2-.8-2.5-.6-3.7-.7zM26.1 1c0 1-.2 2 .3 3.2.2-1.1.4-2.1.6-3 0-.3.2-.6-.2-.7-.4-.1-.7.2-.7.5z"/></g></svg>